<svg xmlns="http://www.w3.org/2000/svg" width="23.476" height="29.669" viewBox="0 0 23.476 29.669">
  <path id="notificacao" d="M76.426,23.611a4.61,4.61,0,0,1-1.4-1.907c-1.207-2.554-1.46-6.153-1.46-8.722,0-.011,0-.022,0-.033a8.418,8.418,0,0,0-4.955-7.635V3.305A3.306,3.306,0,0,0,65.309,0h-.273a3.306,3.306,0,0,0-3.3,3.305V5.313a8.418,8.418,0,0,0-4.956,7.668c0,2.569-.253,6.167-1.46,8.722a4.61,4.61,0,0,1-1.4,1.907.845.845,0,0,0-.464.961.884.884,0,0,0,.872.679H60.7a4.475,4.475,0,0,0,8.95,0h6.371a.884.884,0,0,0,.872-.679A.845.845,0,0,0,76.426,23.611ZM63.474,3.305a1.564,1.564,0,0,1,1.561-1.564h.273A1.564,1.564,0,0,1,66.87,3.305V4.749a8.419,8.419,0,0,0-3.4,0V3.305Zm1.7,24.623a2.743,2.743,0,0,1-2.736-2.676h5.473A2.743,2.743,0,0,1,65.172,27.928Zm3.5-4.418H56.307a9.11,9.11,0,0,0,.456-.8c1.165-2.3,1.756-5.57,1.756-9.729a6.654,6.654,0,1,1,13.307,0c0,.011,0,.021,0,.032,0,4.142.594,7.4,1.756,9.694a9.118,9.118,0,0,0,.456.8Z" transform="translate(-53.434)" fill="#3c3c3c"/>
</svg>
