<svg id="tijolo" xmlns="http://www.w3.org/2000/svg" width="31" height="31" viewBox="0 0 31 31">
  <g id="Group_42" data-name="Group 42" transform="translate(0)">
    <path id="Path_992" data-name="Path 992" d="M30.943,14.614a.636.636,0,0,0-.044-.089.616.616,0,0,0-.116-.137c-.018-.017-.026-.04-.046-.054s-.022-.006-.031-.013-.018-.019-.031-.027l-2.9-1.657A2,2,0,0,0,27.3,9.374L22.563,7.007l.549-1.373.372-.186a1.247,1.247,0,0,0,.646.18,1.31,1.31,0,0,0,.356-.049l4.978-1.423A2.119,2.119,0,0,0,28.882,0h-.594a2.129,2.129,0,0,0-1.324.464l-3.622,2.9a1.247,1.247,0,0,0-.46.944l-.567.283A.643.643,0,0,0,22,4.926l-.6,1.5-1.8-.9a3.462,3.462,0,0,0-4.128.863l-5.5,6.6L.48,15.522a.678.678,0,0,0-.1.048c-.019.009-.043.005-.062.017s-.017.021-.027.027a.643.643,0,0,0-.2.2c-.005.009-.008.018-.013.027a.628.628,0,0,0-.07.262c0,.014-.01.026-.01.04v9.042a.646.646,0,0,0,.325.561l9.042,5.167a.647.647,0,0,0,.32.085.622.622,0,0,0,.192-.03l20.667-6.458A.645.645,0,0,0,31,23.9V14.854c0-.022-.013-.04-.014-.062A.651.651,0,0,0,30.943,14.614ZM27.772,1.472a.826.826,0,0,1,.515-.181h.6a.826.826,0,0,1,.227,1.621L24.475,4.238a.012.012,0,0,1,0-.006.54.54,0,0,0-.058-.074ZM16.464,7.215a2.1,2.1,0,0,1,1.617-.757,2.169,2.169,0,0,1,.944.221l1.9.948-.13.326-6.271,3.764a.646.646,0,0,0,.333,1.2.634.634,0,0,0,.332-.093l6.458-3.875a.642.642,0,0,0,.267-.314l.17-.426,4.638,2.319a.74.74,0,0,1-.151,1.378l-.314.079h-.005L8.869,16.33ZM9.042,29.241l-7.75-4.428V17.259l7.75,4.428Zm.722-8.628L2.331,16.365l6.205-1.655L6.608,17.024a.646.646,0,0,0,.5,1.059.609.609,0,0,0,.158-.021l2.17-.543,1.861,1.117a.646.646,0,1,0,.665-1.107l-.756-.453,2.483-.62,1.483.889a.646.646,0,1,0,.665-1.107l-.376-.225,2.484-.621,1.1.661a.659.659,0,0,0,.333.092.645.645,0,0,0,.337-1.2l2.484-.621.722.433a.636.636,0,0,0,.9-.837l2.51-.628,2.421,1.383Zm19.945,2.808L10.333,29.476V21.787l19.375-6.054Z" transform="translate(0)" fill="#3c3c3c"/>
  </g>
</svg>
