<?xml version="1.0" encoding="utf-8"?>
<!-- Generator: Adobe Illustrator 24.1.3, SVG Export Plug-In . SVG Version: 6.00 Build 0)  -->
<svg version="1.1" id="Layer_1" xmlns="http://www.w3.org/2000/svg" xmlns:xlink="http://www.w3.org/1999/xlink" x="0px" y="0px"
	 viewBox="0 0 62.79 62.79" style="enable-background:new 0 0 62.79 62.79;" xml:space="preserve">
<style type="text/css">
	.st0{fill:#EB6607;stroke:#EB6607;}
</style>
<path id="estrela" class="st0" d="M57.88,25.16c-0.35-1.08-1.31-1.84-2.43-1.94l-15.38-1.4L34,7.6c-0.61-1.44-2.28-2.11-3.72-1.49
	c-0.67,0.29-1.21,0.82-1.49,1.49l-6.08,14.23l-15.38,1.4c-1.56,0.15-2.7,1.53-2.56,3.09c0.07,0.72,0.41,1.39,0.95,1.86l11.62,10.19
	l-3.43,15.09c-0.35,1.52,0.6,3.04,2.13,3.39c0.71,0.16,1.46,0.05,2.09-0.33l13.26-7.93l13.25,7.93c1.34,0.8,3.08,0.36,3.88-0.98
	c0.37-0.63,0.49-1.37,0.33-2.08l-3.43-15.09l11.63-10.19C57.91,27.42,58.24,26.24,57.88,25.16L57.88,25.16z"/>
</svg>
